<?xml version="1.0" encoding="UTF-8" standalone="no"?>
<!-- Generator: Adobe Illustrator 28.2.0, SVG Export Plug-In . SVG Version: 6.00 Build 0)  -->

<svg
   xmlns:dc="http://purl.org/dc/elements/1.1/"
   xmlns:cc="http://creativecommons.org/ns#"
   xmlns:rdf="http://www.w3.org/1999/02/22-rdf-syntax-ns#"
   xmlns:svg="http://www.w3.org/2000/svg"
   xmlns="http://www.w3.org/2000/svg"
   xmlns:xlink="http://www.w3.org/1999/xlink"
   xmlns:sodipodi="http://sodipodi.sourceforge.net/DTD/sodipodi-0.dtd"
   xmlns:inkscape="http://www.inkscape.org/namespaces/inkscape"
   version="1.1"
   id="Ebene_1"
   x="0px"
   y="0px"
   viewBox="0 0 340.29999 55.699999"
   xml:space="preserve"
   sodipodi:docname="aurora_logo_white_2.svg"
   width="340.29999"
   height="55.700001"
   inkscape:version="0.92.4 (5da689c313, 2019-01-14)"><metadata
   id="metadata3749"><rdf:RDF><cc:Work
       rdf:about=""><dc:format>image/svg+xml</dc:format><dc:type
         rdf:resource="http://purl.org/dc/dcmitype/StillImage" /><dc:title></dc:title></cc:Work></rdf:RDF></metadata><defs
   id="defs3747" /><sodipodi:namedview
   pagecolor="#ffffff"
   bordercolor="#666666"
   borderopacity="1"
   objecttolerance="10"
   gridtolerance="10"
   guidetolerance="10"
   inkscape:pageopacity="0"
   inkscape:pageshadow="2"
   inkscape:window-width="1920"
   inkscape:window-height="1017"
   id="namedview3745"
   showgrid="false"
   inkscape:zoom="2.7267606"
   inkscape:cx="165.19907"
   inkscape:cy="27.899997"
   inkscape:window-x="-8"
   inkscape:window-y="-8"
   inkscape:window-maximized="1"
   inkscape:current-layer="Ebene_1" />
<style
   type="text/css"
   id="style3732">
	.st0{clip-path:url(#SVGID_00000041283115933608414120000007824362181179344282_);fill:#FFFFFF;}
</style>
<g
   id="g3742"
   transform="translate(-96.1,-56.5)"
   style="fill:#bcc5d5;fill-opacity:1">
	<defs
   id="defs3735">
		<rect
   id="SVGID_1_"
   width="532.5"
   height="168.60001"
   x="0"
   y="0" />
	</defs>
	<clipPath
   id="SVGID_00000028304809257449249670000006151855780675881389_">
		<use
   xlink:href="#SVGID_1_"
   style="overflow:visible"
   id="use3737"
   x="0"
   y="0"
   width="100%"
   height="100%" />
	</clipPath>
	<path
   style="fill:#bcc5d5;fill-opacity:1"
   d="m 123.7,81.2 10,19.7 h -19.9 l 9.9,-19.7 m 0,-24.1 -27.6,54.7 h 55.2 z m 285.1,24.1 10,19.7 h -19.9 l 9.9,-19.7 m 0,-24.1 -27.6,54.7 h 55.2 z m -208,29.6 c 0,7.9 -2.2,14.1 -6.6,18.7 -4.3,4.5 -10.2,6.8 -17.6,6.8 -7.3,0 -13.2,-2.3 -17.5,-6.8 -4.3,-4.6 -6.5,-10.8 -6.5,-18.7 V 57.6 h 11.3 v 29.2 c 0,8.9 5.1,14.8 12.7,14.8 7.8,0 12.9,-5.9 12.9,-14.8 V 57.6 h 11.3 z M 223,94.4 V 111 H 211.6 V 57.6 h 22.8 c 6.2,0 11.3,1.7 15.2,5.1 4,3.4 6,7.8 6,13.3 0,7.6 -4.2,13.7 -11.2,16.6 L 259,111.1 H 245.3 L 232.2,94.5 H 223 Z M 234,84 c 5.9,0 10.4,-3.2 10.4,-8 0,-4.8 -4.5,-8 -10.4,-8 h -11 v 16 z m 78,-19.4 c 5.4,5.4 8.2,11.9 8.2,19.7 0,7.8 -2.7,14.3 -8.2,19.7 -5.4,5.4 -12,8.1 -19.8,8.1 -7.8,0 -14.4,-2.7 -19.8,-8.1 -5.4,-5.4 -8.1,-11.9 -8.1,-19.7 0,-7.8 2.7,-14.3 8.1,-19.7 5.4,-5.4 12,-8.1 19.8,-8.1 7.8,0 14.4,2.6 19.8,8.1 m -8.1,31.8 c 3.1,-3.4 4.7,-7.4 4.7,-12.2 0,-4.8 -1.6,-8.8 -4.7,-12.2 -3.1,-3.4 -7,-5 -11.7,-5 -4.6,0 -8.6,1.7 -11.7,5 -3.1,3.4 -4.7,7.4 -4.7,12.2 0,4.8 1.6,8.8 4.7,12.2 3.1,3.4 7.1,5 11.7,5 4.7,0.1 8.6,-1.6 11.7,-5 m 38,-2 V 111 H 330.5 V 57.6 h 22.8 c 6.2,0 11.3,1.7 15.2,5.1 4,3.4 6,7.8 6,13.3 0,7.6 -4.2,13.7 -11.2,16.6 l 14.6,18.5 H 364.2 L 351.1,94.5 h -9.2 z m 11,-10.4 c 5.9,0 10.4,-3.2 10.4,-8 0,-4.8 -4.5,-8 -10.4,-8 h -11 v 16 z"
   clip-path="url(#SVGID_00000028304809257449249670000006151855780675881389_)"
   id="path3740"
   inkscape:connector-curvature="0" />
</g>
</svg>