<?xml version="1.0" encoding="UTF-8" standalone="no"?>
<!-- Generator: Adobe Illustrator 27.6.1, SVG Export Plug-In . SVG Version: 6.00 Build 0)  -->

<svg
   version="1.1"
   id="Ebene_1"
   x="0px"
   y="0px"
   viewBox="0 0 232.15285 60.099998"
   xml:space="preserve"
   sodipodi:docname="logo-uibk-blau.svg"
   width="232.15285"
   height="60.099998"
   inkscape:version="1.2.2 (732a01da63, 2022-12-09)"
   xmlns:inkscape="http://www.inkscape.org/namespaces/inkscape"
   xmlns:sodipodi="http://sodipodi.sourceforge.net/DTD/sodipodi-0.dtd"
   xmlns="http://www.w3.org/2000/svg"
   xmlns:svg="http://www.w3.org/2000/svg"><defs
   id="defs39" /><sodipodi:namedview
   id="namedview37"
   pagecolor="#ffffff"
   bordercolor="#000000"
   borderopacity="0.25"
   inkscape:showpageshadow="2"
   inkscape:pageopacity="0.0"
   inkscape:pagecheckerboard="0"
   inkscape:deskcolor="#d1d1d1"
   showgrid="false"
   inkscape:zoom="4.2554694"
   inkscape:cx="113.73598"
   inkscape:cy="28.668988"
   inkscape:window-width="1920"
   inkscape:window-height="1017"
   inkscape:window-x="-8"
   inkscape:window-y="-8"
   inkscape:window-maximized="1"
   inkscape:current-layer="Ebene_1" />
<style
   type="text/css"
   id="style2">
	.st0{fill:#BCC5D5;stroke:#BCC5D5;stroke-miterlimit:10;}
	.st1{fill:#BCC5D5;stroke:#BCC5D5;stroke-width:1.3057;}
	.st2{fill:none;stroke:#BCC5D5;stroke-width:1.3;stroke-miterlimit:10;}
	.st3{fill:#BCC5D5;}
</style>
<g
   id="g34"
   transform="translate(-26.14715,-25.4)">
	<path
   class="st0"
   d="m 26.8,26.1 c 0,9 0,18 0,27.1 9,0 18.1,0 27.1,0 0,-9 0,-18 0,-27.1 -9,0 -18,0 -27.1,0 z"
   id="path4" />
	<path
   class="st1"
   d="m 26.8,26.1 c 0,9 0,18 0,27.1 9,0 18.1,0 27.1,0 0,-9 0,-18 0,-27.1 -9,0 -18,0 -27.1,0 z"
   id="path6" />
	<path
   class="st2"
   d="m 26.8,57.3 c 0,9 0,18 0,27.1 9,0 18,0 27.1,0 0,-9 0,-18 0,-27.1 -9,0 -18,0 -27.1,0 z"
   id="path8" />
	<polygon
   class="st3"
   points="236.1,85 241.3,85 231,74 240.2,65.3 235.2,65.3 227.3,73.3 227.3,56.7 223.6,56.7 223.6,85 227.3,85 227.3,74.9 "
   id="polygon10" />
	<path
   class="st3"
   d="m 144.1,85 h 3.5 v -2.8 h 0.1 c 1,1.5 3.2,3.3 6.7,3.3 6,0 8.5,-5.3 8.5,-10.7 0,-5.3 -2.8,-10 -8.5,-10 -3.4,0 -5.4,1.4 -6.5,3.2 h -0.1 V 56.8 h -3.6 V 85 Z M 159,75.1 c 0.1,3.1 -1.5,7.5 -5.5,7.5 -4.1,0 -5.8,-4.1 -5.8,-7.4 0,-3.7 1.9,-7.4 5.8,-7.4 4,0 5.6,3.7 5.5,7.3 z"
   id="path12" />
	<polygon
   class="st3"
   points="71.5,65.3 71.5,85 75.1,85 75.1,65.3 "
   id="polygon14" />
	<polygon
   class="st3"
   points="71.5,56.7 71.5,60.3 75.1,60.3 75.1,56.7 "
   id="polygon16" />
	<path
   class="st3"
   d="m 81.8,85 h 3.6 v -9.1 c 0,-4.8 1.9,-8.1 6,-8.1 3.2,0.2 4.2,2.4 4.2,7 V 85 h 3.6 V 73.3 c 0,-5.3 -2.3,-8.5 -7.4,-8.5 -2.7,0 -5.4,1.4 -6.5,3.6 H 85.2 V 65.3 H 81.7 V 85 Z m 23.6,0 h 3.6 v -9.1 c 0,-4.8 1.9,-8.1 6,-8.1 3.2,0.2 4.2,2.4 4.2,7 V 85 h 3.6 V 73.3 c 0,-5.3 -2.3,-8.5 -7.4,-8.5 -2.7,0 -5.4,1.4 -6.5,3.6 h 0.1 v -3.1 h -3.5 V 85 Z m 22,-0.6 c 1.7,0.9 3.6,1.1 5.4,1.1 3.5,0 6.9,-1.9 6.9,-6.2 0,-6.3 -8.6,-5.1 -8.6,-9.2 0,-1.6 1.6,-2.4 3.5,-2.4 0.9,0 3,0.5 3.8,1 l 0.3,-3.2 c -1.4,-0.4 -2.8,-0.8 -4.5,-0.8 -3.9,0 -7,2 -7,6.1 0,5.5 8.6,5.2 8.6,8.8 0,2.1 -2.1,2.8 -3.7,2.8 -1,0 -3.1,-0.5 -4.5,-1.4 z m 40.4,0.6 h 3.6 v -9 c 0,-5 2.1,-8 5.4,-8 0.6,0 1.4,0.1 2,0.3 V 65 c -0.8,-0.2 -1.3,-0.3 -2.4,-0.3 -2.1,0 -4.2,1.5 -5.1,3.5 h -0.1 v -3.1 h -3.4 z m 32.5,-19.7 h -3.6 v 9.1 c 0,4.8 -1.9,8.1 -6,8.1 -3.2,-0.2 -4.2,-2.4 -4.2,-7 V 65.3 h -3.6 V 77 c 0,5.3 2.3,8.5 7.4,8.5 2.7,0 5.4,-1.4 6.5,-3.6 h 0.1 V 85 h 3.5 V 65.3 Z m 19,0.3 c -1,-0.4 -2.9,-0.8 -4.4,-0.8 -6,0 -10.1,4.3 -10.1,10.3 0,5.6 4.1,10.3 10.1,10.3 1.3,0 3.1,-0.1 4.6,-0.8 l -0.3,-3.3 c -1.1,0.7 -2.7,1.1 -3.9,1.1 -4.7,0 -6.6,-3.9 -6.6,-7.4 0,-3.8 2.3,-7.4 6.3,-7.4 1.2,0 2.6,0.3 3.9,0.9 z"
   id="path18" />
	<path
   class="st3"
   d="m 221.4,34 h -5.2 v -6.7 l -3.6,1.2 V 34 H 208 v 2.9 h 4.5 v 11.5 c 0,3.9 2.3,5.7 6.1,5.7 1.2,0 2.3,-0.3 3.1,-0.5 v -3.1 c -0.5,0.3 -1.4,0.7 -2.5,0.7 -1.7,0 -3.1,-1.2 -3.1,-3.5 V 36.9 h 5.2 V 34 Z"
   id="path20" />
	<path
   class="st3"
   d="m 257.9,34 h -5.2 v -6.7 l -3.6,1.2 V 34 h -4.4 v 2.9 h 4.4 v 11.5 c 0,3.9 2.3,5.7 6.1,5.7 1.2,0 2.3,-0.3 3.1,-0.5 v -3.1 c -0.5,0.3 -1.4,0.7 -2.5,0.7 -1.7,0 -3.1,-1.2 -3.1,-3.5 V 36.9 h 5.2 z"
   id="path22" />
	<polygon
   class="st3"
   points="200.6,25.4 200.6,29.1 204.2,29.1 204.2,25.4 "
   id="polygon24" />
	<polygon
   class="st3"
   points="118.8,25.4 118.8,29.1 122.5,29.1 122.5,25.4 "
   id="polygon26" />
	<polygon
   class="st3"
   points="228.6,27.3 228.6,30.9 232.2,30.9 232.2,27.3 "
   id="polygon28" />
	<polygon
   class="st3"
   points="234.9,27.3 234.9,30.9 238.5,30.9 238.5,27.3 "
   id="polygon30" />
	<path
   class="st3"
   d="m 88.5,34.1 h -3.6 v 9.1 c 0,4.8 -1.9,8.1 -6,8.1 -3.2,-0.2 -4.2,-2.4 -4.2,-7 V 34.1 h -3.6 v 11.7 c 0,5.3 2.3,8.5 7.4,8.5 2.7,0 5.4,-1.4 6.5,-3.6 v 0 3.1 h 3.5 z m 6.2,19.7 h 3.6 v -9.1 c 0,-4.8 1.9,-8.1 6,-8.1 3.2,0.2 4.2,2.4 4.2,7 v 10.2 h 3.6 V 42.1 c 0,-5.3 -2.3,-8.5 -7.4,-8.5 -2.7,0 -5.4,1.4 -6.5,3.6 h -0.1 v -3.1 h -3.5 v 19.7 z m 24.1,0 h 3.6 V 34.1 h -3.6 z M 145,34.1 h -3.6 l -5.5,16.1 h -0.1 l -5.3,-16.1 h -4 l 7.1,19.7 h 4.3 z m 18.6,15.3 c -0.9,0.7 -3.7,2 -6.1,2 -3.4,0 -6.5,-2.7 -6.5,-6.6 h 14.1 c 0,-6.3 -2.1,-11.1 -8.7,-11.1 -5.6,0 -9.2,4.1 -9.2,10 0,6.4 3.2,10.7 10.2,10.7 3.3,0 4.8,-0.8 6.2,-1.3 z M 151,42 c 0.3,-2.6 1.7,-5.5 5.3,-5.5 3.1,0 4.9,2.5 4.9,5.5 z m 19,11.8 h 3.6 v -9 c 0,-5 2.1,-8 5.4,-8 0.6,0 1.4,0.1 2,0.3 v -3.3 c -0.8,-0.2 -1.3,-0.3 -2.4,-0.3 -2.1,0 -4.2,1.5 -5.1,3.5 h -0.1 V 33.9 H 170 Z m 13.4,-0.6 c 1.7,0.9 3.6,1.1 5.4,1.1 3.5,0 6.9,-1.9 6.9,-6.2 0,-6.3 -8.6,-5.1 -8.6,-9.2 0,-1.6 1.6,-2.4 3.5,-2.4 0.9,0 3,0.5 3.8,1 l 0.3,-3.2 c -1.4,-0.4 -2.8,-0.8 -4.5,-0.8 -3.9,0 -7,2 -7,6.1 0,5.5 8.6,5.2 8.6,8.8 0,2.1 -2.1,2.8 -3.7,2.8 -1,0 -3.1,-0.5 -4.5,-1.4 z m 17.2,0.6 h 3.6 V 34.1 h -3.6 z M 227,38.6 c 1.5,-1.2 3.7,-2 5.7,-2 3.6,0 4.9,1.7 4.9,5.1 -1.4,-0.1 -2.4,-0.1 -3.9,-0.1 -3.8,0 -9.2,1.5 -9.2,6.5 0,4.3 3,6.2 7.2,6.2 3.3,0 5.3,-1.8 6.1,-3 h 0.1 v 2.6 h 3.4 c -0.1,-0.6 -0.2,-1.6 -0.2,-3.9 v -8.2 c 0,-5.4 -2.3,-8.2 -7.9,-8.2 -2.5,0 -4.7,0.8 -6.5,1.9 z m 10.6,7.5 c 0,2.9 -1.9,5.2 -5.5,5.2 -1.7,0 -3.7,-1.1 -3.7,-3.2 0,-3.5 4.9,-3.8 6.8,-3.8 0.8,0 1.5,0.1 2.3,0.1 v 1.7 z"
   id="path32" />
</g>
</svg>
